<svg width="625" height="187" viewBox="0 0 625 187" fill="none" xmlns="http://www.w3.org/2000/svg">
<mask id="path-1-outside-1_398_6" maskUnits="userSpaceOnUse" x="46" y="63" width="532" height="65" fill="black">
<rect fill="white" x="46" y="63" width="532" height="65"/>
<path d="M68.4 118L49.2 98.8L68.4 79.6L74.4 85.56L60.72 98.8L74.4 112.04L68.4 118ZM115.976 125.2C112.242 125.2 108.736 124.547 105.456 123.24C102.202 121.907 99.3356 119.96 96.8556 117.4C94.4023 114.84 92.4823 111.707 91.0956 108C89.709 104.267 89.0156 100 89.0156 95.2C89.0156 88.9067 90.189 83.5333 92.5356 79.08C94.8823 74.6 98.0956 71.1733 102.176 68.8C106.256 66.4 110.856 65.2 115.976 65.2C123.069 65.2 128.682 66.8533 132.816 70.16C136.976 73.44 139.789 78.0533 141.256 84L131.416 85.56C130.322 82.1467 128.536 79.4267 126.056 77.4C123.576 75.3467 120.416 74.32 116.576 74.32C112.709 74.2667 109.496 75.1067 106.936 76.84C104.376 78.5733 102.442 81.0133 101.136 84.16C99.8556 87.3067 99.2156 90.9867 99.2156 95.2C99.2156 99.4133 99.8556 103.08 101.136 106.2C102.416 109.293 104.336 111.707 106.896 113.44C109.482 115.173 112.709 116.067 116.576 116.12C119.482 116.147 122.029 115.627 124.216 114.56C126.402 113.467 128.189 111.827 129.576 109.64C130.962 107.427 131.896 104.667 132.376 101.36H122.216V93.8H142.616C142.669 94.2267 142.709 94.8533 142.736 95.68C142.762 96.5067 142.776 97 142.776 97.16C142.776 102.6 141.696 107.44 139.536 111.68C137.402 115.893 134.336 119.2 130.336 121.6C126.336 124 121.549 125.2 115.976 125.2ZM148.409 124V80.8H156.929V91.32L155.889 89.96C156.423 88.52 157.129 87.2133 158.009 86.04C158.916 84.84 159.996 83.8533 161.249 83.08C162.316 82.36 163.489 81.8 164.769 81.4C166.076 80.9733 167.409 80.72 168.769 80.64C170.129 80.5333 171.449 80.5867 172.729 80.8V89.8C171.449 89.4267 169.969 89.3067 168.289 89.44C166.636 89.5733 165.143 90.04 163.809 90.84C162.476 91.56 161.383 92.48 160.529 93.6C159.703 94.72 159.089 96 158.689 97.44C158.289 98.8533 158.089 100.387 158.089 102.04V124H148.409ZM196.821 125.2C192.448 125.2 188.608 124.253 185.301 122.36C181.995 120.467 179.408 117.84 177.541 114.48C175.701 111.12 174.781 107.253 174.781 102.88C174.781 98.16 175.688 94.0667 177.501 90.6C179.315 87.1067 181.835 84.4 185.061 82.48C188.288 80.56 192.021 79.6 196.261 79.6C200.741 79.6 204.541 80.6533 207.661 82.76C210.808 84.84 213.141 87.7867 214.661 91.6C216.181 95.4133 216.755 99.9067 216.381 105.08H206.821V101.56C206.795 96.8667 205.968 93.44 204.341 91.28C202.715 89.12 200.155 88.04 196.661 88.04C192.715 88.04 189.781 89.2667 187.861 91.72C185.941 94.1467 184.981 97.7067 184.981 102.4C184.981 106.773 185.941 110.16 187.861 112.56C189.781 114.96 192.581 116.16 196.261 116.16C198.635 116.16 200.675 115.64 202.381 114.6C204.115 113.533 205.448 112 206.381 110L215.901 112.88C214.248 116.773 211.688 119.8 208.221 121.96C204.781 124.12 200.981 125.2 196.821 125.2ZM181.941 105.08V97.8H211.661V105.08H181.941ZM234.205 125.2C231.085 125.2 228.445 124.613 226.285 123.44C224.125 122.24 222.485 120.653 221.365 118.68C220.272 116.707 219.725 114.533 219.725 112.16C219.725 110.08 220.072 108.213 220.765 106.56C221.458 104.88 222.525 103.44 223.965 102.24C225.405 101.013 227.272 100.013 229.565 99.24C231.298 98.68 233.325 98.1733 235.645 97.72C237.992 97.2667 240.525 96.8533 243.245 96.48C245.992 96.08 248.858 95.6533 251.845 95.2L248.405 97.16C248.432 94.1733 247.765 91.9733 246.405 90.56C245.045 89.1467 242.752 88.44 239.525 88.44C237.578 88.44 235.698 88.8933 233.885 89.8C232.072 90.7067 230.805 92.2667 230.085 94.48L221.285 91.72C222.352 88.0667 224.378 85.1333 227.365 82.92C230.378 80.7067 234.432 79.6 239.525 79.6C243.365 79.6 246.738 80.2267 249.645 81.48C252.578 82.7333 254.752 84.7867 256.165 87.64C256.938 89.16 257.405 90.72 257.565 92.32C257.725 93.8933 257.805 95.6133 257.805 97.48V124H249.365V114.64L250.765 116.16C248.818 119.28 246.538 121.573 243.925 123.04C241.338 124.48 238.098 125.2 234.205 125.2ZM236.125 117.52C238.312 117.52 240.178 117.133 241.725 116.36C243.272 115.587 244.498 114.64 245.405 113.52C246.338 112.4 246.965 111.347 247.285 110.36C247.792 109.133 248.072 107.733 248.125 106.16C248.205 104.56 248.245 103.267 248.245 102.28L251.205 103.16C248.298 103.613 245.805 104.013 243.725 104.36C241.645 104.707 239.858 105.04 238.365 105.36C236.872 105.653 235.552 105.987 234.405 106.36C233.285 106.76 232.338 107.227 231.565 107.76C230.792 108.293 230.192 108.907 229.765 109.6C229.365 110.293 229.165 111.107 229.165 112.04C229.165 113.107 229.432 114.053 229.965 114.88C230.498 115.68 231.272 116.32 232.285 116.8C233.325 117.28 234.605 117.52 236.125 117.52ZM291.139 124C288.285 124.533 285.485 124.76 282.739 124.68C280.019 124.627 277.579 124.133 275.419 123.2C273.259 122.24 271.619 120.733 270.499 118.68C269.512 116.813 268.992 114.907 268.939 112.96C268.885 111.013 268.859 108.813 268.859 106.36V68.8H278.459V105.8C278.459 107.533 278.472 109.053 278.499 110.36C278.552 111.667 278.832 112.733 279.339 113.56C280.299 115.16 281.832 116.053 283.939 116.24C286.045 116.427 288.445 116.32 291.139 115.92V124ZM261.019 88.36V80.8H291.139V88.36H261.019ZM336.004 125.2C330.244 125.2 325.31 123.947 321.204 121.44C317.097 118.907 313.937 115.387 311.724 110.88C309.537 106.373 308.444 101.147 308.444 95.2C308.444 89.2533 309.537 84.0267 311.724 79.52C313.937 75.0133 317.097 71.5067 321.204 69C325.31 66.4667 330.244 65.2 336.004 65.2C342.644 65.2 348.177 66.8667 352.604 70.2C357.03 73.5067 360.137 77.9733 361.924 83.6L352.204 86.28C351.084 82.52 349.177 79.5867 346.484 77.48C343.79 75.3467 340.297 74.28 336.004 74.28C332.137 74.28 328.91 75.1467 326.324 76.88C323.764 78.6133 321.83 81.0533 320.524 84.2C319.244 87.32 318.59 90.9867 318.564 95.2C318.564 99.4133 319.204 103.093 320.484 106.24C321.79 109.36 323.737 111.787 326.324 113.52C328.91 115.253 332.137 116.12 336.004 116.12C340.297 116.12 343.79 115.053 346.484 112.92C349.177 110.787 351.084 107.853 352.204 104.12L361.924 106.8C360.137 112.427 357.03 116.907 352.604 120.24C348.177 123.547 342.644 125.2 336.004 125.2ZM387.386 125.2C383.066 125.2 379.293 124.227 376.066 122.28C372.84 120.333 370.333 117.653 368.546 114.24C366.786 110.8 365.906 106.853 365.906 102.4C365.906 97.8667 366.813 93.8933 368.626 90.48C370.44 87.0667 372.96 84.4 376.186 82.48C379.413 80.56 383.146 79.6 387.386 79.6C391.733 79.6 395.52 80.5733 398.746 82.52C401.973 84.4667 404.48 87.16 406.266 90.6C408.053 94.0133 408.946 97.9467 408.946 102.4C408.946 106.88 408.04 110.84 406.226 114.28C404.44 117.693 401.933 120.373 398.706 122.32C395.48 124.24 391.706 125.2 387.386 125.2ZM387.386 116.16C391.226 116.16 394.08 114.88 395.946 112.32C397.813 109.76 398.746 106.453 398.746 102.4C398.746 98.2133 397.8 94.88 395.906 92.4C394.013 89.8933 391.173 88.64 387.386 88.64C384.8 88.64 382.666 89.2267 380.986 90.4C379.333 91.5467 378.106 93.16 377.306 95.24C376.506 97.2933 376.106 99.68 376.106 102.4C376.106 106.587 377.053 109.933 378.946 112.44C380.866 114.92 383.68 116.16 387.386 116.16ZM432.679 125.2C428.706 125.2 425.239 124.2 422.279 122.2C419.319 120.2 417.026 117.48 415.399 114.04C413.773 110.6 412.959 106.72 412.959 102.4C412.959 98.0267 413.773 94.1333 415.399 90.72C417.053 87.28 419.386 84.5733 422.399 82.6C425.413 80.6 428.959 79.6 433.039 79.6C437.146 79.6 440.586 80.6 443.359 82.6C446.159 84.5733 448.279 87.28 449.719 90.72C451.159 94.16 451.879 98.0533 451.879 102.4C451.879 106.693 451.159 110.573 449.719 114.04C448.279 117.48 446.133 120.2 443.279 122.2C440.426 124.2 436.893 125.2 432.679 125.2ZM434.159 116.56C436.746 116.56 438.826 115.973 440.399 114.8C441.999 113.6 443.159 111.933 443.879 109.8C444.626 107.667 444.999 105.2 444.999 102.4C444.999 99.5733 444.626 97.1067 443.879 95C443.159 92.8667 442.026 91.2133 440.479 90.04C438.933 88.84 436.933 88.24 434.479 88.24C431.893 88.24 429.759 88.88 428.079 90.16C426.399 91.4133 425.159 93.12 424.359 95.28C423.559 97.4133 423.159 99.7867 423.159 102.4C423.159 105.04 423.546 107.44 424.319 109.6C425.119 111.733 426.333 113.427 427.959 114.68C429.586 115.933 431.653 116.56 434.159 116.56ZM444.999 124V93.68H443.799V66.4H453.519V124H444.999ZM481.974 125.2C477.601 125.2 473.761 124.253 470.454 122.36C467.148 120.467 464.561 117.84 462.694 114.48C460.854 111.12 459.934 107.253 459.934 102.88C459.934 98.16 460.841 94.0667 462.654 90.6C464.468 87.1067 466.988 84.4 470.214 82.48C473.441 80.56 477.174 79.6 481.414 79.6C485.894 79.6 489.694 80.6533 492.814 82.76C495.961 84.84 498.294 87.7867 499.814 91.6C501.334 95.4133 501.908 99.9067 501.534 105.08H491.974V101.56C491.948 96.8667 491.121 93.44 489.494 91.28C487.868 89.12 485.308 88.04 481.814 88.04C477.868 88.04 474.934 89.2667 473.014 91.72C471.094 94.1467 470.134 97.7067 470.134 102.4C470.134 106.773 471.094 110.16 473.014 112.56C474.934 114.96 477.734 116.16 481.414 116.16C483.788 116.16 485.828 115.64 487.534 114.6C489.268 113.533 490.601 112 491.534 110L501.054 112.88C499.401 116.773 496.841 119.8 493.374 121.96C489.934 124.12 486.134 125.2 481.974 125.2ZM467.094 105.08V97.8H496.814V105.08H467.094ZM522.619 66.4H532.299L516.939 124H507.259L522.619 66.4ZM555.229 118L549.269 112.04L562.909 98.8L549.269 85.56L555.229 79.6L574.469 98.8L555.229 118Z"/>
</mask>
<path d="M68.4 118L66.9858 119.414L68.3953 120.824L69.8095 119.419L68.4 118ZM49.2 98.8L47.7858 97.3858L46.3716 98.8L47.7858 100.214L49.2 98.8ZM68.4 79.6L69.8095 78.1811L68.3953 76.7763L66.9858 78.1858L68.4 79.6ZM74.4 85.56L75.7909 86.9971L77.2566 85.5786L75.8095 84.1411L74.4 85.56ZM60.72 98.8L59.3291 97.3629L57.8442 98.8L59.3291 100.237L60.72 98.8ZM74.4 112.04L75.8095 113.459L77.2566 112.021L75.7909 110.603L74.4 112.04ZM69.8142 116.586L50.6142 97.3858L47.7858 100.214L66.9858 119.414L69.8142 116.586ZM50.6142 100.214L69.8142 81.0142L66.9858 78.1858L47.7858 97.3858L50.6142 100.214ZM66.9905 81.0189L72.9905 86.9789L75.8095 84.1411L69.8095 78.1811L66.9905 81.0189ZM73.0091 84.1229L59.3291 97.3629L62.1109 100.237L75.7909 86.9971L73.0091 84.1229ZM59.3291 100.237L73.0091 113.477L75.7909 110.603L62.1109 97.3629L59.3291 100.237ZM72.9905 110.621L66.9905 116.581L69.8095 119.419L75.8095 113.459L72.9905 110.621ZM105.456 123.24L104.697 125.091L104.706 125.094L104.715 125.098L105.456 123.24ZM96.8556 117.4L95.4116 118.784L95.4191 118.792L96.8556 117.4ZM91.0956 108L89.2208 108.696L89.2224 108.701L91.0956 108ZM92.5356 79.08L94.305 80.0124L94.3073 80.008L92.5356 79.08ZM102.176 68.8L103.181 70.5288L103.19 70.5239L102.176 68.8ZM132.816 70.16L131.566 71.7217L131.572 71.7262L131.577 71.7305L132.816 70.16ZM141.256 84L141.569 85.9753L143.719 85.6345L143.197 83.5211L141.256 84ZM131.416 85.56L129.511 86.1701L130.034 87.804L131.729 87.5353L131.416 85.56ZM126.056 77.4L124.78 78.9405L124.79 78.9487L126.056 77.4ZM116.576 74.32L116.548 76.3198L116.562 76.32H116.576V74.32ZM106.936 76.84L108.057 78.4961L108.057 78.4961L106.936 76.84ZM101.136 84.16L99.2885 83.393L99.2858 83.3997L99.283 83.4064L101.136 84.16ZM101.136 106.2L99.2853 106.959L99.2876 106.965L101.136 106.2ZM106.896 113.44L105.774 115.096L105.782 115.101L106.896 113.44ZM116.576 116.12L116.548 118.12L116.557 118.12L116.576 116.12ZM124.216 114.56L125.092 116.358L125.101 116.353L125.11 116.349L124.216 114.56ZM129.576 109.64L131.265 110.711L131.27 110.702L129.576 109.64ZM132.376 101.36L134.355 101.647L134.687 99.36H132.376V101.36ZM122.216 101.36H120.216V103.36H122.216V101.36ZM122.216 93.8V91.8H120.216V93.8H122.216ZM142.616 93.8L144.6 93.5519L144.381 91.8H142.616V93.8ZM142.736 95.68L144.735 95.6155L144.735 95.6155L142.736 95.68ZM139.536 111.68L137.754 110.772L137.751 110.777L139.536 111.68ZM130.336 121.6L131.365 123.315L131.365 123.315L130.336 121.6ZM115.976 123.2C112.481 123.2 109.227 122.59 106.196 121.382L104.715 125.098C108.244 126.504 112.004 127.2 115.976 127.2V123.2ZM106.214 121.389C103.22 120.162 100.583 118.373 98.2921 116.008L95.4191 118.792C98.0884 121.547 101.185 123.651 104.697 125.091L106.214 121.389ZM98.2996 116.016C96.055 113.674 94.2714 110.781 92.9688 107.299L89.2224 108.701C90.6932 112.632 92.7496 116.006 95.4116 118.784L98.2996 116.016ZM92.9705 107.304C91.6816 103.834 91.0156 99.8097 91.0156 95.2H87.0156C87.0156 100.19 87.7363 104.7 89.2208 108.696L92.9705 107.304ZM91.0156 95.2C91.0156 89.1518 92.1431 84.1152 94.305 80.0124L90.7662 78.1476C88.2349 82.9515 87.0156 88.6615 87.0156 95.2H91.0156ZM94.3073 80.008C96.4922 75.8369 99.4504 72.699 103.181 70.5288L101.17 67.0712C96.7409 69.6476 93.2724 73.3631 90.764 78.152L94.3073 80.008ZM103.19 70.5239C106.937 68.3193 111.182 67.2 115.976 67.2V63.2C110.529 63.2 105.574 64.4807 101.162 67.0761L103.19 70.5239ZM115.976 67.2C122.769 67.2 127.892 68.7821 131.566 71.7217L134.065 68.5983C129.473 64.9245 123.369 63.2 115.976 63.2V67.2ZM131.577 71.7305C135.335 74.6932 137.936 78.8938 139.314 84.4789L143.197 83.5211C141.642 77.2129 138.616 72.1868 134.054 68.5895L131.577 71.7305ZM140.942 82.0247L131.102 83.5847L131.729 87.5353L141.569 85.9753L140.942 82.0247ZM133.32 84.9499C132.124 81.2138 130.135 78.151 127.321 75.8513L124.79 78.9487C126.936 80.7023 128.521 83.0795 129.511 86.1701L133.32 84.9499ZM127.331 75.8595C124.426 73.4545 120.788 72.32 116.576 72.32V76.32C120.044 76.32 122.725 77.2388 124.78 78.9405L127.331 75.8595ZM116.603 72.3202C112.431 72.2626 108.79 73.1694 105.814 75.1839L108.057 78.4961C110.202 77.0439 112.987 76.2707 116.548 76.3198L116.603 72.3202ZM105.814 75.1839C102.898 77.1585 100.729 79.9237 99.2885 83.393L102.983 84.927C104.155 82.1029 105.853 79.9882 108.057 78.4961L105.814 75.1839ZM99.283 83.4064C97.8854 86.8424 97.2156 90.7884 97.2156 95.2H101.216C101.216 91.185 101.826 87.771 102.988 84.9136L99.283 83.4064ZM97.2156 95.2C97.2156 99.611 97.8852 103.546 99.2853 106.959L102.986 105.441C101.826 102.614 101.216 99.2157 101.216 95.2H97.2156ZM99.2876 106.965C100.704 110.389 102.863 113.125 105.774 115.096L108.017 111.784C105.808 110.288 104.127 108.198 102.984 105.435L99.2876 106.965ZM105.782 115.101C108.76 117.097 112.388 118.062 116.548 118.12L116.603 114.12C113.03 114.071 110.204 113.25 108.009 111.779L105.782 115.101ZM116.557 118.12C119.714 118.149 122.578 117.584 125.092 116.358L123.339 112.762C121.48 113.669 119.25 114.144 116.594 114.12L116.557 118.12ZM125.11 116.349C127.641 115.083 129.695 113.186 131.265 110.711L127.887 108.569C126.683 110.467 125.163 111.85 123.321 112.771L125.11 116.349ZM131.27 110.702C132.84 108.197 133.846 105.155 134.355 101.647L130.396 101.073C129.946 104.178 129.085 106.656 127.881 108.578L131.27 110.702ZM132.376 99.36H122.216V103.36H132.376V99.36ZM124.216 101.36V93.8H120.216V101.36H124.216ZM122.216 95.8H142.616V91.8H122.216V95.8ZM140.631 94.0481C140.673 94.3813 140.711 94.9342 140.737 95.7445L144.735 95.6155C144.707 94.7724 144.665 94.072 144.6 93.5519L140.631 94.0481ZM140.737 95.7445C140.764 96.5885 140.776 97.0407 140.776 97.16H144.776C144.776 96.9593 144.761 96.4248 144.735 95.6155L140.737 95.7445ZM140.776 97.16C140.776 102.33 139.751 106.851 137.754 110.772L141.318 112.588C143.64 108.029 144.776 102.87 144.776 97.16H140.776ZM137.751 110.777C135.786 114.658 132.979 117.681 129.307 119.885L131.365 123.315C135.692 120.719 139.019 117.129 141.32 112.583L137.751 110.777ZM129.307 119.885C125.673 122.065 121.257 123.2 115.976 123.2V127.2C121.84 127.2 126.998 125.935 131.365 123.315L129.307 119.885ZM148.409 124H146.409V126H148.409V124ZM148.409 80.8V78.8H146.409V80.8H148.409ZM156.929 80.8H158.929V78.8H156.929V80.8ZM156.929 91.32L155.341 92.5349L158.929 97.2278V91.32H156.929ZM155.889 89.96L154.014 89.2654L153.631 90.2992L154.301 91.1749L155.889 89.96ZM158.009 86.04L156.414 84.8343L156.409 84.84L158.009 86.04ZM161.249 83.08L162.3 84.7821L162.334 84.7606L162.368 84.7377L161.249 83.08ZM164.769 81.4L165.366 83.309L165.378 83.3052L165.39 83.3012L164.769 81.4ZM168.769 80.64L168.887 82.6365L168.906 82.6354L168.926 82.6339L168.769 80.64ZM172.729 80.8H174.729V79.1057L173.058 78.8272L172.729 80.8ZM172.729 89.8L172.169 91.72L174.729 92.4667V89.8H172.729ZM168.289 89.44L168.131 87.4463L168.129 87.4465L168.289 89.44ZM163.809 90.84L164.76 92.5998L164.8 92.5783L164.838 92.555L163.809 90.84ZM160.529 93.6L158.939 92.3879L158.929 92.4L158.92 92.4123L160.529 93.6ZM158.689 97.44L160.614 97.9846L160.616 97.9753L158.689 97.44ZM158.089 124V126H160.089V124H158.089ZM150.409 124V80.8H146.409V124H150.409ZM148.409 82.8H156.929V78.8H148.409V82.8ZM154.929 80.8V91.32H158.929V80.8H154.929ZM158.518 90.1051L157.478 88.7451L154.301 91.1749L155.341 92.5349L158.518 90.1051ZM157.765 90.6546C158.234 89.387 158.85 88.2519 159.609 87.24L156.409 84.84C155.408 86.1747 154.611 87.653 154.014 89.2654L157.765 90.6546ZM159.605 87.2457C160.366 86.2392 161.262 85.4224 162.3 84.7821L160.199 81.3779C158.73 82.2843 157.467 83.4408 156.414 84.8343L159.605 87.2457ZM162.368 84.7377C163.267 84.1309 164.263 83.6535 165.366 83.309L164.173 79.491C162.715 79.9465 161.365 80.5891 160.13 81.4223L162.368 84.7377ZM165.39 83.3012C166.535 82.9273 167.7 82.7064 168.887 82.6365L168.652 78.6434C167.119 78.7336 165.617 79.0194 164.149 79.4988L165.39 83.3012ZM168.926 82.6339C170.132 82.5393 171.289 82.5875 172.401 82.7728L173.058 78.8272C171.61 78.5858 170.127 78.5274 168.613 78.6461L168.926 82.6339ZM170.729 80.8V89.8H174.729V80.8H170.729ZM173.289 87.88C171.724 87.4234 169.992 87.2986 168.131 87.4463L168.448 91.4337C169.947 91.3147 171.175 91.4299 172.169 91.72L173.289 87.88ZM168.129 87.4465C166.189 87.6029 164.395 88.1561 162.78 89.125L164.838 92.555C165.89 91.9239 167.083 91.5438 168.45 91.4335L168.129 87.4465ZM162.859 89.0802C161.295 89.9247 159.977 91.0251 158.939 92.3879L162.12 94.8121C162.789 93.9349 163.657 93.1952 164.76 92.5998L162.859 89.0802ZM158.92 92.4123C157.938 93.7426 157.223 95.2471 156.762 96.9047L160.616 97.9753C160.956 96.7529 161.467 95.6974 162.139 94.7877L158.92 92.4123ZM156.765 96.8954C156.309 98.5065 156.089 100.225 156.089 102.04H160.089C160.089 100.548 160.27 99.2002 160.614 97.9846L156.765 96.8954ZM156.089 102.04V124H160.089V102.04H156.089ZM158.089 122H148.409V126H158.089V122ZM185.301 122.36L186.295 120.624L186.295 120.624L185.301 122.36ZM177.541 114.48L175.787 115.441L175.793 115.451L177.541 114.48ZM177.501 90.6L179.273 91.527L179.276 91.5214L177.501 90.6ZM185.061 82.48L184.039 80.7613L184.039 80.7613L185.061 82.48ZM207.661 82.76L206.542 84.4175L206.55 84.423L206.558 84.4284L207.661 82.76ZM214.661 91.6L212.803 92.3405L212.803 92.3405L214.661 91.6ZM216.381 105.08V107.08H218.242L218.376 105.224L216.381 105.08ZM206.821 105.08H204.821V107.08H206.821V105.08ZM206.821 101.56L208.821 101.56L208.821 101.549L206.821 101.56ZM204.341 91.28L205.939 90.0768L205.939 90.0768L204.341 91.28ZM187.861 91.72L189.43 92.961L189.436 92.9526L187.861 91.72ZM187.861 112.56L186.3 113.809L186.3 113.809L187.861 112.56ZM202.381 114.6L203.422 116.308L203.429 116.303L202.381 114.6ZM206.381 110L206.96 108.086L205.302 107.584L204.569 109.154L206.381 110ZM215.901 112.88L217.742 113.662L218.613 111.611L216.48 110.966L215.901 112.88ZM208.221 121.96L207.164 120.263L207.158 120.266L208.221 121.96ZM181.941 105.08H179.941V107.08H181.941V105.08ZM181.941 97.8V95.8H179.941V97.8H181.941ZM211.661 97.8H213.661V95.8H211.661V97.8ZM211.661 105.08V107.08H213.661V105.08H211.661ZM196.821 123.2C192.744 123.2 189.257 122.32 186.295 120.624L184.307 124.096C187.959 126.186 192.152 127.2 196.821 127.2V123.2ZM186.295 120.624C183.308 118.914 180.981 116.553 179.29 113.509L175.793 115.451C177.835 119.127 180.681 122.019 184.307 124.096L186.295 120.624ZM179.295 113.519C177.638 110.493 176.781 106.966 176.781 102.88H172.781C172.781 107.541 173.764 111.747 175.787 115.441L179.295 113.519ZM176.781 102.88C176.781 98.4168 177.638 94.6543 179.273 91.527L175.729 89.673C173.738 93.4791 172.781 97.9032 172.781 102.88H176.781ZM179.276 91.5214C180.927 88.342 183.193 85.9188 186.084 84.1987L184.039 80.7613C180.476 82.8812 177.702 85.8713 175.726 89.6786L179.276 91.5214ZM186.084 84.1987C188.963 82.4857 192.334 81.6 196.261 81.6V77.6C191.709 77.6 187.613 78.6343 184.039 80.7613L186.084 84.1987ZM196.261 81.6C200.42 81.6 203.811 82.5737 206.542 84.4175L208.78 81.1025C205.271 78.733 201.063 77.6 196.261 77.6V81.6ZM206.558 84.4284C209.334 86.2634 211.421 88.8712 212.803 92.3405L216.519 90.8595C214.862 86.7022 212.281 83.4166 208.764 81.0916L206.558 84.4284ZM212.803 92.3405C214.186 95.8092 214.744 99.987 214.386 104.936L218.376 105.224C218.766 99.8264 218.176 95.0174 216.519 90.8595L212.803 92.3405ZM216.381 103.08H206.821V107.08H216.381V103.08ZM208.821 105.08V101.56H204.821V105.08H208.821ZM208.821 101.549C208.794 96.7078 207.954 92.7529 205.939 90.0768L202.744 92.4832C203.982 94.1271 204.795 97.0255 204.821 101.571L208.821 101.549ZM205.939 90.0768C203.828 87.2738 200.582 86.04 196.661 86.04V90.04C199.727 90.04 201.601 90.9662 202.744 92.4832L205.939 90.0768ZM196.661 86.04C192.279 86.04 188.684 87.4238 186.286 90.4874L189.436 92.9526C190.879 91.1096 193.15 90.04 196.661 90.04V86.04ZM186.293 90.479C183.981 93.4005 182.981 97.4779 182.981 102.4H186.981C186.981 97.9354 187.901 94.8929 189.43 92.961L186.293 90.479ZM182.981 102.4C182.981 107.04 183.997 110.932 186.3 113.809L189.423 111.311C187.885 109.388 186.981 106.507 186.981 102.4H182.981ZM186.3 113.809C188.675 116.779 192.107 118.16 196.261 118.16V114.16C193.056 114.16 190.887 113.141 189.423 111.311L186.3 113.809ZM196.261 118.16C198.932 118.16 201.347 117.572 203.422 116.308L201.341 112.892C200.002 113.708 198.337 114.16 196.261 114.16V118.16ZM203.429 116.303C205.524 115.014 207.109 113.169 208.194 110.846L204.569 109.154C203.786 110.831 202.705 112.052 201.333 112.897L203.429 116.303ZM205.802 111.914L215.322 114.794L216.48 110.966L206.96 108.086L205.802 111.914ZM214.06 112.098C212.562 115.627 210.268 118.328 207.164 120.263L209.279 123.657C213.108 121.272 215.934 117.919 217.742 113.662L214.06 112.098ZM207.158 120.266C204.044 122.221 200.615 123.2 196.821 123.2V127.2C201.348 127.2 205.518 126.019 209.285 123.654L207.158 120.266ZM183.941 105.08V97.8H179.941V105.08H183.941ZM181.941 99.8H211.661V95.8H181.941V99.8ZM209.661 97.8V105.08H213.661V97.8H209.661ZM211.661 103.08H181.941V107.08H211.661V103.08ZM226.285 123.44L225.314 125.188L225.322 125.193L225.33 125.197L226.285 123.44ZM221.365 118.68L219.616 119.649L219.621 119.658L219.626 119.667L221.365 118.68ZM220.765 106.56L222.609 107.333L222.614 107.323L220.765 106.56ZM223.965 102.24L225.245 103.776L225.254 103.77L225.262 103.762L223.965 102.24ZM229.565 99.24L228.95 97.3369L228.938 97.3408L228.926 97.3448L229.565 99.24ZM235.645 97.72L235.266 95.7563L235.261 95.7571L235.645 97.72ZM243.245 96.48L243.517 98.4614L243.525 98.4603L243.533 98.4591L243.245 96.48ZM251.845 95.2L252.835 96.9377L251.545 93.2226L251.845 95.2ZM248.405 97.16L246.405 97.1421L246.374 100.619L249.395 98.8977L248.405 97.16ZM246.405 90.56L244.964 91.9468L244.964 91.9468L246.405 90.56ZM233.885 89.8L234.779 91.5889L234.779 91.5889L233.885 89.8ZM230.085 94.48L229.486 96.3883L231.375 96.9806L231.987 95.0987L230.085 94.48ZM221.285 91.72L219.365 91.1595L218.816 93.0416L220.686 93.6283L221.285 91.72ZM227.365 82.92L226.181 81.3081L226.174 81.3131L227.365 82.92ZM249.645 81.48L248.853 83.3165L248.859 83.3192L249.645 81.48ZM256.165 87.64L254.373 88.5277L254.378 88.5373L254.382 88.5469L256.165 87.64ZM257.565 92.32L255.575 92.519L255.575 92.5223L257.565 92.32ZM257.805 124V126H259.805V124H257.805ZM249.365 124H247.365V126H249.365V124ZM249.365 114.64L250.836 113.285L247.365 109.516V114.64H249.365ZM250.765 116.16L252.462 117.219L253.268 115.926L252.236 114.805L250.765 116.16ZM243.925 123.04L244.898 124.787L244.904 124.784L243.925 123.04ZM241.725 116.36L242.619 118.149L242.619 118.149L241.725 116.36ZM245.405 113.52L243.869 112.24L243.859 112.251L243.851 112.262L245.405 113.52ZM247.285 110.36L245.436 109.596L245.407 109.669L245.383 109.743L247.285 110.36ZM248.125 106.16L246.127 106.06L246.127 106.076L246.126 106.092L248.125 106.16ZM248.245 102.28L248.815 100.363L246.245 99.5989V102.28H248.245ZM251.205 103.16L251.513 105.136L251.775 101.243L251.205 103.16ZM243.725 104.36L243.396 102.387L243.396 102.387L243.725 104.36ZM238.365 105.36L238.75 107.322L238.767 107.319L238.784 107.316L238.365 105.36ZM234.405 106.36L233.786 104.458L233.759 104.467L233.732 104.477L234.405 106.36ZM229.765 109.6L228.062 108.552L228.047 108.576L228.033 108.601L229.765 109.6ZM229.965 114.88L228.284 115.964L228.293 115.977L228.301 115.989L229.965 114.88ZM232.285 116.8L231.429 118.607L231.438 118.612L231.447 118.616L232.285 116.8ZM234.205 123.2C231.331 123.2 229.038 122.659 227.24 121.683L225.33 125.197C227.852 126.567 230.839 127.2 234.205 127.2V123.2ZM227.256 121.692C225.388 120.654 224.027 119.319 223.104 117.693L219.626 119.667C220.943 121.988 222.862 123.826 225.314 125.188L227.256 121.692ZM223.114 117.711C222.194 116.05 221.725 114.213 221.725 112.16H217.725C217.725 114.854 218.349 117.364 219.616 119.649L223.114 117.711ZM221.725 112.16C221.725 110.304 222.034 108.706 222.609 107.333L218.921 105.787C218.109 107.721 217.725 109.856 217.725 112.16H221.725ZM222.614 107.323C223.179 105.953 224.047 104.775 225.245 103.776L222.685 100.704C221.003 102.105 219.737 103.807 218.916 105.797L222.614 107.323ZM225.262 103.762C226.463 102.74 228.087 101.849 230.204 101.135L228.926 97.3448C226.456 98.1777 224.347 99.2869 222.668 100.718L225.262 103.762ZM230.18 101.143C231.819 100.614 233.765 100.125 236.029 99.6829L235.261 95.7571C232.885 96.2215 230.778 96.7464 228.95 97.3369L230.18 101.143ZM236.024 99.6837C238.331 99.2382 240.828 98.8305 243.517 98.4614L242.973 94.4986C240.222 94.8761 237.653 95.2952 235.266 95.7563L236.024 99.6837ZM243.533 98.4591C246.284 98.0585 249.155 97.6312 252.145 97.1774L251.545 93.2226C248.562 93.6754 245.699 94.1015 242.957 94.5009L243.533 98.4591ZM250.855 93.4623L247.415 95.4223L249.395 98.8977L252.835 96.9377L250.855 93.4623ZM250.405 97.1779C250.434 93.9358 249.72 91.1205 247.846 89.1732L244.964 91.9468C245.81 92.8262 246.429 94.4109 246.405 97.1421L250.405 97.1779ZM247.846 89.1732C245.927 87.1787 242.96 86.44 239.525 86.44V90.44C242.543 90.44 244.163 91.1146 244.964 91.9468L247.846 89.1732ZM239.525 86.44C237.255 86.44 235.07 86.9716 232.991 88.0111L234.779 91.5889C236.327 90.8151 237.902 90.44 239.525 90.44V86.44ZM232.991 88.0111C230.626 89.1933 229.042 91.2208 228.183 93.8613L231.987 95.0987C232.568 93.3126 233.517 92.2201 234.779 91.5889L232.991 88.0111ZM230.684 92.5717L221.884 89.8117L220.686 93.6283L229.486 96.3883L230.684 92.5717ZM223.205 92.2805C224.152 89.0354 225.929 86.4737 228.556 84.5269L226.174 81.3131C222.828 83.7929 220.551 87.0979 219.365 91.1595L223.205 92.2805ZM228.549 84.5319C231.114 82.6477 234.706 81.6 239.525 81.6V77.6C234.157 77.6 229.642 78.7656 226.181 81.3081L228.549 84.5319ZM239.525 81.6C243.149 81.6 246.244 82.1914 248.853 83.3165L250.437 79.6435C247.233 78.2619 243.581 77.6 239.525 77.6V81.6ZM248.859 83.3192C251.355 84.3857 253.171 86.1021 254.373 88.5277L257.957 86.7523C256.332 83.4712 253.801 81.081 250.431 79.6408L248.859 83.3192ZM254.382 88.5469C255.05 89.8594 255.441 91.1805 255.575 92.519L259.555 92.121C259.369 90.2595 258.826 88.4606 257.948 86.7331L254.382 88.5469ZM255.575 92.5223C255.727 94.0178 255.805 95.6692 255.805 97.48H259.805C259.805 95.5574 259.723 93.7689 259.555 92.1177L255.575 92.5223ZM255.805 97.48V124H259.805V97.48H255.805ZM257.805 122H249.365V126H257.805V122ZM251.365 124V114.64H247.365V124H251.365ZM247.894 115.995L249.294 117.515L252.236 114.805L250.836 113.285L247.894 115.995ZM249.068 115.101C247.259 118 245.207 120.027 242.946 121.296L244.904 124.784C247.87 123.12 250.377 120.56 252.462 117.219L249.068 115.101ZM242.952 121.293C240.742 122.523 237.862 123.2 234.205 123.2V127.2C238.335 127.2 241.934 126.437 244.898 124.787L242.952 121.293ZM236.125 119.52C238.542 119.52 240.731 119.093 242.619 118.149L240.831 114.571C239.625 115.174 238.081 115.52 236.125 115.52V119.52ZM242.619 118.149C244.371 117.273 245.841 116.16 246.959 114.778L243.851 112.262C243.156 113.12 242.172 113.9 240.831 114.571L242.619 118.149ZM246.941 114.8C247.977 113.558 248.764 112.283 249.187 110.977L245.383 109.743C245.166 110.41 244.7 111.242 243.869 112.24L246.941 114.8ZM249.134 111.124C249.747 109.639 250.064 107.997 250.124 106.228L246.126 106.092C246.079 107.47 245.837 108.628 245.436 109.596L249.134 111.124ZM250.122 106.26C250.203 104.644 250.245 103.314 250.245 102.28H246.245C246.245 103.219 246.207 104.476 246.127 106.06L250.122 106.26ZM247.675 104.197L250.635 105.077L251.775 101.243L248.815 100.363L247.675 104.197ZM250.897 101.184C247.986 101.638 245.485 102.039 243.396 102.387L244.054 106.333C246.125 105.988 248.611 105.589 251.513 105.136L250.897 101.184ZM243.396 102.387C241.296 102.737 239.478 103.076 237.946 103.404L238.784 107.316C240.239 107.004 241.994 106.676 244.054 106.333L243.396 102.387ZM237.98 103.398C236.427 103.703 235.026 104.055 233.786 104.458L235.024 108.262C236.077 107.919 237.317 107.604 238.75 107.322L237.98 103.398ZM233.732 104.477C232.49 104.92 231.378 105.459 230.43 106.114L232.7 109.406C233.298 108.994 234.08 108.6 235.078 108.243L233.732 104.477ZM230.43 106.114C229.462 106.781 228.655 107.588 228.062 108.552L231.468 110.648C231.729 110.225 232.121 109.806 232.7 109.406L230.43 106.114ZM228.033 108.601C227.43 109.645 227.165 110.815 227.165 112.04H231.165C231.165 111.399 231.3 110.942 231.497 110.599L228.033 108.601ZM227.165 112.04C227.165 113.458 227.525 114.787 228.284 115.964L231.646 113.796C231.338 113.32 231.165 112.756 231.165 112.04H227.165ZM228.301 115.989C229.067 117.138 230.143 117.998 231.429 118.607L233.141 114.993C232.4 114.642 231.93 114.222 231.629 113.771L228.301 115.989ZM231.447 118.616C232.821 119.25 234.406 119.52 236.125 119.52V115.52C234.804 115.52 233.829 115.31 233.123 114.984L231.447 118.616ZM291.139 124L291.506 125.966L293.139 125.661V124H291.139ZM282.739 124.68L282.797 122.681L282.787 122.681L282.778 122.68L282.739 124.68ZM275.419 123.2L274.606 125.028L274.616 125.032L274.625 125.036L275.419 123.2ZM270.499 118.68L268.731 119.615L268.737 119.626L268.743 119.638L270.499 118.68ZM268.939 112.96L270.938 112.905L270.938 112.905L268.939 112.96ZM268.859 68.8V66.8H266.859V68.8H268.859ZM278.459 68.8H280.459V66.8H278.459V68.8ZM278.499 110.36L276.499 110.401L276.5 110.421L276.5 110.442L278.499 110.36ZM279.339 113.56L281.054 112.531L281.049 112.523L281.044 112.515L279.339 113.56ZM283.939 116.24L284.115 114.248L284.115 114.248L283.939 116.24ZM291.139 115.92H293.139V113.601L290.845 113.942L291.139 115.92ZM261.019 88.36H259.019V90.36H261.019V88.36ZM261.019 80.8V78.8H259.019V80.8H261.019ZM291.139 80.8H293.139V78.8H291.139V80.8ZM291.139 88.36V90.36H293.139V88.36H291.139ZM290.771 122.034C288.05 122.543 285.393 122.756 282.797 122.681L282.681 126.679C285.578 126.764 288.52 126.524 291.506 125.966L290.771 122.034ZM282.778 122.68C280.277 122.631 278.099 122.18 276.212 121.364L274.625 125.036C277.058 126.087 279.76 126.622 282.7 126.68L282.778 122.68ZM276.231 121.372C274.468 120.589 273.162 119.385 272.255 117.722L268.743 119.638C270.076 122.081 272.05 123.891 274.606 125.028L276.231 121.372ZM272.267 117.745C271.412 116.127 270.982 114.519 270.938 112.905L266.94 113.015C267.002 115.294 267.613 117.5 268.731 119.615L272.267 117.745ZM270.938 112.905C270.885 110.981 270.859 108.8 270.859 106.36H266.859C266.859 108.827 266.886 111.046 266.94 113.015L270.938 112.905ZM270.859 106.36V68.8H266.859V106.36H270.859ZM268.859 70.8H278.459V66.8H268.859V70.8ZM276.459 68.8V105.8H280.459V68.8H276.459ZM276.459 105.8C276.459 107.543 276.472 109.077 276.499 110.401L280.498 110.319C280.472 109.03 280.459 107.524 280.459 105.8H276.459ZM276.5 110.442C276.563 111.975 276.897 113.404 277.634 114.605L281.044 112.515C280.767 112.063 280.541 111.358 280.497 110.278L276.5 110.442ZM277.624 114.589C278.96 116.817 281.116 117.998 283.762 118.232L284.115 114.248C282.548 114.109 281.637 113.503 281.054 112.531L277.624 114.589ZM283.762 118.232C286.063 118.436 288.626 118.315 291.433 117.898L290.845 113.942C288.265 114.325 286.028 114.417 284.115 114.248L283.762 118.232ZM289.139 115.92V124H293.139V115.92H289.139ZM263.019 88.36V80.8H259.019V88.36H263.019ZM261.019 82.8H291.139V78.8H261.019V82.8ZM289.139 80.8V88.36H293.139V80.8H289.139ZM291.139 86.36H261.019V90.36H291.139V86.36ZM321.204 121.44L320.154 123.142L320.162 123.147L321.204 121.44ZM311.724 110.88L309.924 111.753L309.929 111.762L311.724 110.88ZM311.724 79.52L309.929 78.6383L309.924 78.6469L311.724 79.52ZM321.204 69L322.246 70.7071L322.254 70.7022L321.204 69ZM352.604 70.2L351.401 71.7977L351.407 71.8023L352.604 70.2ZM361.924 83.6L362.455 85.5281L364.459 84.9756L363.83 82.9947L361.924 83.6ZM352.204 86.28L350.287 86.851L350.846 88.7289L352.735 88.2081L352.204 86.28ZM346.484 77.48L345.242 79.0478L345.252 79.0553L346.484 77.48ZM326.324 76.88L325.21 75.2185L325.202 75.2239L326.324 76.88ZM320.524 84.2L318.677 83.433L318.673 83.4409L320.524 84.2ZM318.564 95.2L316.564 95.1873V95.2H318.564ZM320.484 106.24L318.631 106.994L318.635 107.003L318.639 107.013L320.484 106.24ZM326.324 113.52L327.437 111.859L327.437 111.859L326.324 113.52ZM346.484 112.92L345.242 111.352L345.242 111.352L346.484 112.92ZM352.204 104.12L352.735 102.192L350.85 101.672L350.288 103.545L352.204 104.12ZM361.924 106.8L363.83 107.405L364.459 105.424L362.455 104.872L361.924 106.8ZM352.604 120.24L353.801 121.842L353.807 121.838L352.604 120.24ZM336.004 123.2C330.538 123.2 325.982 122.013 322.246 119.733L320.162 123.147C324.639 125.88 329.949 127.2 336.004 127.2V123.2ZM322.254 119.738C318.481 117.411 315.573 114.181 313.519 109.998L309.929 111.762C312.301 116.592 315.713 120.403 320.154 123.142L322.254 119.738ZM313.523 110.007C311.491 105.819 310.444 100.9 310.444 95.2H306.444C306.444 101.393 307.583 106.928 309.924 111.753L313.523 110.007ZM310.444 95.2C310.444 89.4997 311.491 84.5813 313.523 80.3931L309.924 78.6469C307.583 83.472 306.444 89.007 306.444 95.2H310.444ZM313.519 80.4017C315.572 76.2205 318.478 73.0069 322.246 70.7071L320.162 67.2929C315.716 70.0064 312.302 73.8062 309.929 78.6383L313.519 80.4017ZM322.254 70.7022C325.988 68.3984 330.542 67.2 336.004 67.2V63.2C329.945 63.2 324.632 64.5349 320.154 67.2978L322.254 70.7022ZM336.004 67.2C342.298 67.2 347.385 68.7741 351.401 71.7977L353.807 68.6023C348.969 64.9592 342.989 63.2 336.004 63.2V67.2ZM351.407 71.8023C355.475 74.8414 358.348 78.9481 360.018 84.2053L363.83 82.9947C361.926 76.9986 358.586 72.172 353.801 68.5977L351.407 71.8023ZM361.392 81.6719L351.672 84.3519L352.735 88.2081L362.455 85.5281L361.392 81.6719ZM354.121 85.709C352.9 81.6121 350.783 78.3034 347.716 75.9047L345.252 79.0553C347.571 80.8699 349.267 83.4279 350.287 86.851L354.121 85.709ZM347.726 75.9122C344.598 73.4351 340.633 72.28 336.004 72.28V76.28C339.961 76.28 342.983 77.2582 345.242 79.0478L347.726 75.9122ZM336.004 72.28C331.837 72.28 328.198 73.2164 325.21 75.2185L327.437 78.5415C329.623 77.0769 332.437 76.28 336.004 76.28V72.28ZM325.202 75.2239C322.286 77.1985 320.117 79.9637 318.677 83.433L322.371 84.967C323.544 82.1429 325.241 80.0282 327.445 78.5361L325.202 75.2239ZM318.673 83.4409C317.275 86.8488 316.592 90.7795 316.564 95.1873L320.564 95.2127C320.589 91.1938 321.212 87.7912 322.374 84.9591L318.673 83.4409ZM316.564 95.2C316.564 99.6116 317.233 103.558 318.631 106.994L322.336 105.486C321.174 102.629 320.564 99.215 320.564 95.2H316.564ZM318.639 107.013C320.083 110.462 322.27 113.211 325.21 115.181L327.437 111.859C325.204 110.362 323.497 108.258 322.329 105.467L318.639 107.013ZM325.21 115.181C328.198 117.184 331.837 118.12 336.004 118.12V114.12C332.437 114.12 329.623 113.323 327.437 111.859L325.21 115.181ZM336.004 118.12C340.633 118.12 344.598 116.965 347.726 114.488L345.242 111.352C342.983 113.142 339.961 114.12 336.004 114.12V118.12ZM347.726 114.488C350.782 112.067 352.898 108.766 354.119 104.695L350.288 103.545C349.269 106.941 347.572 109.506 345.242 111.352L347.726 114.488ZM351.672 106.048L361.392 108.728L362.455 104.872L352.735 102.192L351.672 106.048ZM360.018 106.195C358.348 111.453 355.473 115.576 351.401 118.642L353.807 121.838C358.587 118.238 361.926 113.4 363.83 107.405L360.018 106.195ZM351.407 118.638C347.391 121.637 342.302 123.2 336.004 123.2V127.2C342.986 127.2 348.963 125.456 353.801 121.842L351.407 118.638ZM376.066 122.28L377.099 120.568L377.099 120.568L376.066 122.28ZM368.546 114.24L366.766 115.151L366.77 115.159L366.774 115.167L368.546 114.24ZM368.626 90.48L366.86 89.5417L366.86 89.5417L368.626 90.48ZM376.186 82.48L375.164 80.7613L375.164 80.7613L376.186 82.48ZM398.746 82.52L399.779 80.8075L399.779 80.8075L398.746 82.52ZM406.266 90.6L404.491 91.5218L404.494 91.5275L406.266 90.6ZM406.226 114.28L404.457 113.347L404.454 113.353L406.226 114.28ZM398.706 122.32L399.729 124.039L399.739 124.032L398.706 122.32ZM395.946 112.32L394.33 111.142L394.33 111.142L395.946 112.32ZM395.906 92.4L394.31 93.6054L394.317 93.6136L395.906 92.4ZM380.986 90.4L382.126 92.0434L382.131 92.0397L380.986 90.4ZM377.306 95.24L379.17 95.9661L379.173 95.958L377.306 95.24ZM378.946 112.44L377.35 113.645L377.358 113.655L377.365 113.664L378.946 112.44ZM387.386 123.2C383.376 123.2 379.971 122.3 377.099 120.568L375.033 123.992C378.615 126.153 382.756 127.2 387.386 127.2V123.2ZM377.099 120.568C374.193 118.814 371.939 116.409 370.318 113.313L366.774 115.167C368.727 118.898 371.486 121.852 375.033 123.992L377.099 120.568ZM370.327 113.329C368.732 110.211 367.906 106.585 367.906 102.4H363.906C363.906 107.122 364.841 111.389 366.766 115.151L370.327 113.329ZM367.906 102.4C367.906 98.1372 368.757 94.4965 370.392 91.4183L366.86 89.5417C364.869 93.2901 363.906 97.5961 363.906 102.4H367.906ZM370.392 91.4183C372.039 88.3183 374.306 85.9258 377.209 84.1987L375.164 80.7613C371.613 82.8742 368.84 85.8151 366.86 89.5417L370.392 91.4183ZM377.209 84.1987C380.088 82.4857 383.459 81.6 387.386 81.6V77.6C382.834 77.6 378.738 78.6343 375.164 80.7613L377.209 84.1987ZM387.386 81.6C391.426 81.6 394.844 82.5013 397.713 84.2325L399.779 80.8075C396.196 78.6454 392.04 77.6 387.386 77.6V81.6ZM397.713 84.2325C400.615 85.9833 402.869 88.3988 404.491 91.5218L408.041 89.6782C406.09 85.9212 403.331 82.9501 399.779 80.8075L397.713 84.2325ZM404.494 91.5275C406.109 94.6129 406.946 98.2191 406.946 102.4H410.946C410.946 97.6742 409.996 93.4137 408.038 89.6725L404.494 91.5275ZM406.946 102.4C406.946 106.605 406.097 110.236 404.457 113.347L407.995 115.213C409.982 111.444 410.946 107.155 410.946 102.4H406.946ZM404.454 113.353C402.833 116.449 400.579 118.854 397.673 120.608L399.739 124.032C403.287 121.892 406.046 118.938 407.998 115.207L404.454 113.353ZM397.684 120.601C394.81 122.311 391.401 123.2 387.386 123.2V127.2C392.011 127.2 396.149 126.169 399.729 124.039L397.684 120.601ZM387.386 118.16C391.713 118.16 395.237 116.687 397.562 113.498L394.33 111.142C392.922 113.073 390.74 114.16 387.386 114.16V118.16ZM397.562 113.498C399.74 110.511 400.746 106.758 400.746 102.4H396.746C396.746 106.149 395.885 109.009 394.33 111.142L397.562 113.498ZM400.746 102.4C400.746 97.9236 399.733 94.1172 397.496 91.1864L394.317 93.6136C395.866 95.6428 396.746 98.5031 396.746 102.4H400.746ZM397.502 91.1946C395.152 88.0825 391.656 86.64 387.386 86.64V90.64C390.69 90.64 392.874 91.7042 394.31 93.6054L397.502 91.1946ZM387.386 86.64C384.498 86.64 381.936 87.2975 379.841 88.7603L382.131 92.0397C383.397 91.1559 385.101 90.64 387.386 90.64V86.64ZM379.846 88.7566C377.828 90.1562 376.367 92.1096 375.44 94.522L379.173 95.958C379.845 94.2104 380.837 92.9371 382.126 92.0434L379.846 88.7566ZM375.443 94.5139C374.534 96.8459 374.106 99.4879 374.106 102.4H378.106C378.106 99.8721 378.478 97.7407 379.17 95.9661L375.443 94.5139ZM374.106 102.4C374.106 106.878 375.12 110.692 377.35 113.645L380.542 111.235C378.986 109.175 378.106 106.296 378.106 102.4H374.106ZM377.365 113.664C379.735 116.726 383.187 118.16 387.386 118.16V114.16C384.172 114.16 381.998 113.114 380.528 111.216L377.365 113.664ZM422.279 122.2L423.399 120.543L423.399 120.543L422.279 122.2ZM415.399 114.04L413.591 114.895L413.591 114.895L415.399 114.04ZM415.399 90.72L413.597 89.8536L413.594 89.8596L415.399 90.72ZM422.399 82.6L423.495 84.2732L423.505 84.2664L422.399 82.6ZM443.359 82.6L442.19 84.2222L442.198 84.2285L442.207 84.2348L443.359 82.6ZM449.719 114.04L451.564 114.812L451.566 114.807L449.719 114.04ZM443.279 122.2L444.427 123.838L444.427 123.838L443.279 122.2ZM440.399 114.8L441.595 116.403L441.599 116.4L440.399 114.8ZM443.879 109.8L441.992 109.139L441.988 109.15L441.984 109.16L443.879 109.8ZM443.879 95L441.984 95.6396L441.989 95.6539L441.994 95.6681L443.879 95ZM440.479 90.04L439.253 91.6202L439.262 91.6268L439.271 91.6334L440.479 90.04ZM428.079 90.16L429.275 91.763L429.283 91.757L429.291 91.7509L428.079 90.16ZM424.359 95.28L426.232 95.9823L426.235 95.9746L424.359 95.28ZM424.319 109.6L422.436 110.274L422.441 110.288L422.447 110.302L424.319 109.6ZM427.959 114.68L426.739 116.264L426.739 116.264L427.959 114.68ZM444.999 124H442.999V126H444.999V124ZM444.999 93.68H446.999V91.68H444.999V93.68ZM443.799 93.68H441.799V95.68H443.799V93.68ZM443.799 66.4V64.4H441.799V66.4H443.799ZM453.519 66.4H455.519V64.4H453.519V66.4ZM453.519 124V126H455.519V124H453.519ZM432.679 123.2C429.059 123.2 425.992 122.295 423.399 120.543L421.16 123.857C424.487 126.105 428.354 127.2 432.679 127.2V123.2ZM423.399 120.543C420.756 118.757 418.691 116.323 417.207 113.185L413.591 114.895C415.361 118.637 417.883 121.643 421.16 123.857L423.399 120.543ZM417.207 113.185C415.723 110.046 414.959 106.464 414.959 102.4H410.959C410.959 106.976 411.822 111.154 413.591 114.895L417.207 113.185ZM414.959 102.4C414.959 98.2779 415.725 94.6859 417.205 91.5804L413.594 89.8596C411.821 93.5807 410.959 97.7755 410.959 102.4H414.959ZM417.202 91.5864C418.707 88.4543 420.805 86.0349 423.495 84.2732L421.304 80.9268C417.967 83.1118 415.398 86.1057 413.597 89.8536L417.202 91.5864ZM423.505 84.2664C426.15 82.5111 429.301 81.6 433.039 81.6V77.6C428.618 77.6 424.675 78.6889 421.293 80.9336L423.505 84.2664ZM433.039 81.6C436.812 81.6 439.821 82.5139 442.19 84.2222L444.529 80.9778C441.351 78.6861 437.48 77.6 433.039 77.6V81.6ZM442.207 84.2348C444.673 85.9724 446.566 88.3673 447.874 91.4923L451.564 89.9477C449.992 86.1927 447.646 83.1743 444.512 80.9652L442.207 84.2348ZM447.874 91.4923C449.197 94.6506 449.879 98.2751 449.879 102.4H453.879C453.879 97.8315 453.122 93.6694 451.564 89.9477L447.874 91.4923ZM449.879 102.4C449.879 106.468 449.198 110.082 447.872 113.273L451.566 114.807C453.121 111.065 453.879 106.919 453.879 102.4H449.879ZM447.874 113.268C446.57 116.385 444.653 118.794 442.131 120.562L444.427 123.838C447.612 121.606 449.989 118.575 451.564 114.812L447.874 113.268ZM442.131 120.562C439.68 122.281 436.569 123.2 432.679 123.2V127.2C437.216 127.2 441.172 126.119 444.427 123.838L442.131 120.562ZM434.159 118.56C437.04 118.56 439.581 117.905 441.595 116.403L439.204 113.197C438.071 114.041 436.452 114.56 434.159 114.56V118.56ZM441.599 116.4C443.563 114.928 444.942 112.906 445.774 110.44L441.984 109.16C441.377 110.961 440.436 112.272 439.199 113.2L441.599 116.4ZM445.767 110.461C446.603 108.071 446.999 105.373 446.999 102.4H442.999C442.999 105.027 442.649 107.262 441.992 109.139L445.767 110.461ZM446.999 102.4C446.999 99.4033 446.604 96.7013 445.764 94.3319L441.994 95.6681C442.648 97.512 442.999 99.7434 442.999 102.4H446.999ZM445.774 94.3604C444.947 91.9099 443.603 89.8989 441.688 88.4466L439.271 91.6334C440.45 92.5277 441.371 93.8234 441.984 95.6396L445.774 94.3604ZM441.705 88.4598C439.727 86.925 437.262 86.24 434.479 86.24V90.24C436.603 90.24 438.138 90.755 439.253 91.6202L441.705 88.4598ZM434.479 86.24C431.556 86.24 428.968 86.9685 426.867 88.5691L429.291 91.7509C430.551 90.7915 432.23 90.24 434.479 90.24V86.24ZM426.883 88.557C424.864 90.0638 423.404 92.1005 422.484 94.5854L426.235 95.9746C426.915 94.1395 427.935 92.7629 429.275 91.763L426.883 88.557ZM422.487 94.5778C421.591 96.9661 421.159 99.5816 421.159 102.4H425.159C425.159 99.9917 425.528 97.8606 426.232 95.9822L422.487 94.5778ZM421.159 102.4C421.159 105.236 421.575 107.868 422.436 110.274L426.202 108.926C425.517 107.012 425.159 104.844 425.159 102.4H421.159ZM422.447 110.302C423.363 112.745 424.785 114.759 426.739 116.264L429.18 113.096C427.88 112.094 426.876 110.721 426.192 108.898L422.447 110.302ZM426.739 116.264C428.787 117.842 431.311 118.56 434.159 118.56V114.56C431.994 114.56 430.385 114.024 429.18 113.096L426.739 116.264ZM446.999 124V93.68H442.999V124H446.999ZM444.999 91.68H443.799V95.68H444.999V91.68ZM445.799 93.68V66.4H441.799V93.68H445.799ZM443.799 68.4H453.519V64.4H443.799V68.4ZM451.519 66.4V124H455.519V66.4H451.519ZM453.519 122H444.999V126H453.519V122ZM470.454 122.36L471.448 120.624L471.448 120.624L470.454 122.36ZM462.694 114.48L460.94 115.441L460.946 115.451L462.694 114.48ZM462.654 90.6L464.427 91.527L464.429 91.5214L462.654 90.6ZM470.214 82.48L469.192 80.7613L469.192 80.7613L470.214 82.48ZM492.814 82.76L491.695 84.4175L491.703 84.423L491.712 84.4284L492.814 82.76ZM499.814 91.6L497.957 92.3405L497.957 92.3405L499.814 91.6ZM501.534 105.08V107.08H503.395L503.529 105.224L501.534 105.08ZM491.974 105.08H489.974V107.08H491.974V105.08ZM491.974 101.56L493.974 101.56L493.974 101.549L491.974 101.56ZM489.494 91.28L491.092 90.0768L491.092 90.0768L489.494 91.28ZM473.014 91.72L474.583 92.961L474.589 92.9526L473.014 91.72ZM473.014 112.56L471.453 113.809L471.453 113.809L473.014 112.56ZM487.534 114.6L488.575 116.308L488.583 116.303L487.534 114.6ZM491.534 110L492.113 108.086L490.455 107.584L489.722 109.154L491.534 110ZM501.054 112.88L502.895 113.662L503.766 111.611L501.633 110.966L501.054 112.88ZM493.374 121.96L492.317 120.263L492.311 120.266L493.374 121.96ZM467.094 105.08H465.094V107.08H467.094V105.08ZM467.094 97.8V95.8H465.094V97.8H467.094ZM496.814 97.8H498.814V95.8H496.814V97.8ZM496.814 105.08V107.08H498.814V105.08H496.814ZM481.974 123.2C477.897 123.2 474.41 122.32 471.448 120.624L469.461 124.096C473.112 126.186 477.305 127.2 481.974 127.2V123.2ZM471.448 120.624C468.461 118.914 466.134 116.553 464.443 113.509L460.946 115.451C462.988 119.127 465.835 122.019 469.461 124.096L471.448 120.624ZM464.449 113.519C462.791 110.493 461.934 106.966 461.934 102.88H457.934C457.934 107.541 458.917 111.747 460.94 115.441L464.449 113.519ZM461.934 102.88C461.934 98.4168 462.791 94.6543 464.427 91.527L460.882 89.673C458.891 93.4791 457.934 97.9032 457.934 102.88H461.934ZM464.429 91.5214C466.08 88.342 468.346 85.9188 471.237 84.1987L469.192 80.7613C465.629 82.8812 462.856 85.8713 460.879 89.6786L464.429 91.5214ZM471.237 84.1987C474.116 82.4857 477.487 81.6 481.414 81.6V77.6C476.862 77.6 472.766 78.6343 469.192 80.7613L471.237 84.1987ZM481.414 81.6C485.573 81.6 488.964 82.5737 491.695 84.4175L493.934 81.1025C490.424 78.733 486.216 77.6 481.414 77.6V81.6ZM491.712 84.4284C494.488 86.2634 496.574 88.8712 497.957 92.3405L501.672 90.8595C500.015 86.7022 497.435 83.4166 493.917 81.0916L491.712 84.4284ZM497.957 92.3405C499.339 95.8092 499.897 99.987 499.54 104.936L503.529 105.224C503.919 99.8264 503.33 95.0174 501.672 90.8595L497.957 92.3405ZM501.534 103.08H491.974V107.08H501.534V103.08ZM493.974 105.08V101.56H489.974V105.08H493.974ZM493.974 101.549C493.947 96.7078 493.107 92.7529 491.092 90.0768L487.897 92.4832C489.135 94.1271 489.949 97.0255 489.974 101.571L493.974 101.549ZM491.092 90.0768C488.981 87.2738 485.735 86.04 481.814 86.04V90.04C484.881 90.04 486.754 90.9662 487.897 92.4832L491.092 90.0768ZM481.814 86.04C477.432 86.04 473.837 87.4238 471.439 90.4874L474.589 92.9526C476.032 91.1096 478.303 90.04 481.814 90.04V86.04ZM471.446 90.479C469.134 93.4005 468.134 97.4779 468.134 102.4H472.134C472.134 97.9354 473.054 94.8929 474.583 92.961L471.446 90.479ZM468.134 102.4C468.134 107.04 469.15 110.932 471.453 113.809L474.576 111.311C473.038 109.388 472.134 106.507 472.134 102.4H468.134ZM471.453 113.809C473.828 116.779 477.26 118.16 481.414 118.16V114.16C478.209 114.16 476.04 113.141 474.576 111.311L471.453 113.809ZM481.414 118.16C484.085 118.16 486.5 117.572 488.575 116.308L486.494 112.892C485.155 113.708 483.49 114.16 481.414 114.16V118.16ZM488.583 116.303C490.677 115.014 492.263 113.169 493.347 110.846L489.722 109.154C488.939 110.831 487.858 112.052 486.486 112.897L488.583 116.303ZM490.955 111.914L500.475 114.794L501.633 110.966L492.113 108.086L490.955 111.914ZM499.213 112.098C497.715 115.627 495.421 118.328 492.317 120.263L494.432 123.657C498.261 121.272 501.087 117.919 502.895 113.662L499.213 112.098ZM492.311 120.266C489.198 122.221 485.768 123.2 481.974 123.2V127.2C486.501 127.2 490.671 126.019 494.438 123.654L492.311 120.266ZM469.094 105.08V97.8H465.094V105.08H469.094ZM467.094 99.8H496.814V95.8H467.094V99.8ZM494.814 97.8V105.08H498.814V97.8H494.814ZM496.814 103.08H467.094V107.08H496.814V103.08ZM522.619 66.4V64.4H521.083L520.687 65.8847L522.619 66.4ZM532.299 66.4L534.232 66.9153L534.903 64.4H532.299V66.4ZM516.939 124V126H518.476L518.872 124.515L516.939 124ZM507.259 124L505.327 123.485L504.656 126H507.259V124ZM522.619 68.4H532.299V64.4H522.619V68.4ZM530.367 65.8847L515.007 123.485L518.872 124.515L534.232 66.9153L530.367 65.8847ZM516.939 122H507.259V126H516.939V122ZM509.192 124.515L524.552 66.9153L520.687 65.8847L505.327 123.485L509.192 124.515ZM555.229 118L553.815 119.414L555.227 120.827L556.642 119.416L555.229 118ZM549.269 112.04L547.876 110.605L546.419 112.019L547.855 113.454L549.269 112.04ZM562.909 98.8L564.302 100.235L565.78 98.8L564.302 97.3649L562.909 98.8ZM549.269 85.56L547.855 84.1458L546.419 85.5812L547.876 86.9951L549.269 85.56ZM555.229 79.6L556.642 78.1843L555.227 76.773L553.815 78.1858L555.229 79.6ZM574.469 98.8L575.882 100.216L577.3 98.8L575.882 97.3843L574.469 98.8ZM556.643 116.586L550.683 110.626L547.855 113.454L553.815 119.414L556.643 116.586ZM550.662 113.475L564.302 100.235L561.516 97.3649L547.876 110.605L550.662 113.475ZM564.302 97.3649L550.662 84.1249L547.876 86.9951L561.516 100.235L564.302 97.3649ZM550.683 86.9742L556.643 81.0142L553.815 78.1858L547.855 84.1458L550.683 86.9742ZM553.816 81.0157L573.056 100.216L575.882 97.3843L556.642 78.1843L553.816 81.0157ZM573.056 97.3843L553.816 116.584L556.642 119.416L575.882 100.216L573.056 97.3843Z" fill="#1D4221" mask="url(#path-1-outside-1_398_6)"/>
</svg>
